<svg xmlns="http://www.w3.org/2000/svg" viewBox="0 0 512.001 512.001"><path fill="#4f505e" d="M296.87 226.894v64.549h200.746l-64.548-64.549z"/><path d="M433.068 226.894h-32.389c35.649 0 64.548 28.9 64.548 64.548h32.389c0-35.648-28.899-64.548-64.548-64.548z" fill="#787a8f"/><path d="M154.224 8.097H92.381c-43.078 0-78 34.921-78 78v205.345h139.843V8.097z" fill="#464754"/><path d="M352.656 273.274H296.87v230.628h177.443V394.93c-.001-67.188-54.468-121.656-121.657-121.656z" fill="#585969"/><path d="M352.656 273.274h-32.389c67.189 0 121.656 54.467 121.656 121.656v108.972h32.389V394.93c0-67.188-54.467-121.656-121.656-121.656z" fill="#6d6e82"/><path d="M237.659 8.097H135.567c-43.078 0-78 34.921-78 78v205.345h258.092V86.097c.001-43.078-34.92-78-78-78z" fill="#d7565a"/><g fill="#ff7374"><path d="M237.659 8.097H205.27c43.078 0 78 34.921 78 78v205.345h32.389V86.098c.001-43.079-34.92-78.001-78-78.001zM334.241 323.874H136.647v180.029h273.981V356.307z"/></g><path fill="#ff8f90" d="M334.241 323.874h-32.39l76.387 32.432v147.596h32.39V356.306z"/><path d="M345.764 291.443H84.303v64.864h326.325c0-35.824-29.04-64.864-64.864-64.864z" fill="#ff6465"/><path d="M345.764 291.442h-32.389c35.824 0 64.864 29.04 64.864 64.864h32.389c0-35.823-29.04-64.864-64.864-64.864z" fill="#ff8080"/><path d="M70.168 273.274H14.381v230.628h177.443V394.93c0-67.188-54.467-121.656-121.656-121.656z" fill="#585969"/><path d="M70.168 273.274H37.779c67.189 0 121.656 54.467 121.656 121.656v108.972h32.389V394.93c0-67.188-54.467-121.656-121.656-121.656z" fill="#6d6e82"/><path fill="#4f505e" d="M14.381 226.894v64.549h200.747l-64.548-64.549z"/><path d="M150.58 226.894h-32.389c35.649 0 64.548 28.9 64.548 64.548h32.389c0-35.648-28.899-64.548-64.548-64.548z" fill="#787a8f"/><path d="M433.07 218.796H323.758V86.098C323.758 38.623 285.135 0 237.659 0H92.381C44.907 0 6.284 38.623 6.284 86.098v296.324a8.097 8.097 0 1 0 16.194 0V299.54h109.265c.607.392 1.218.777 1.816 1.18.227.153.457.302.683.457 20.356 13.942 35.735 34.199 43.588 57.567.029.103.048.207.082.309a114.22 114.22 0 0 1 5.815 35.879v100.875H22.479v-80.994a8.097 8.097 0 1 0-16.194 0v89.092a8.097 8.097 0 0 0 8.097 8.097h459.932a8.097 8.097 0 0 0 8.097-8.097v-57.646a8.097 8.097 0 1 0-16.194 0v49.548h-47.489v-139.5c0-40.231-32.731-72.962-72.962-72.962H323.76v-1.974h28.899c23.485 0 46.716 7.441 65.825 21.079 16.249 11.596 29.348 27.455 37.614 45.63 6.673 14.675 10.121 30.731 10.121 46.849v18.937a8.097 8.097 0 1 0 16.194 0V394.93c0-37.685-16.154-71.664-41.895-95.391h57.103a8.097 8.097 0 0 0 8.097-8.097c-.003-40.056-32.592-72.646-72.648-72.646zM22.479 234.991h128.103c20.796 0 40.754 12.217 50.221 30.726 2.782 5.438 4.704 11.32 5.606 17.364.013.087.022.176.033.263H22.479v-48.353zM199.921 394.93a131.36 131.36 0 0 0-3.598-30.526h206.208v131.401h-202.61V394.93zm145.843-95.391c10.763 0 21.456 3.207 30.542 8.948 8.539 5.396 15.412 13.179 20.052 22.116 2.811 5.414 4.639 11.294 5.548 17.321.014.094.023.19.037.285H191.301c-7.088-18.462-18.356-35.107-33.126-48.67h187.589zm-122.986-16.195c.036 0-1.497-8.752-1.677-9.475-5.026-20.24-19.195-37.774-37.756-47.211-10.098-5.134-21.435-7.862-32.763-7.862H65.665V162.44a8.097 8.097 0 1 0-16.194 0v56.357H22.479V86.098c0-35.98 27.327-65.699 62.314-69.494-.158.116-.311.236-.469.353-.19.141-.378.285-.566.428C62.632 33.377 49.47 59.354 49.47 86.098v43.954c0 .28.014.556.042.828.412 4.054 3.987 7.269 8.055 7.269 4.096 0 7.642-3.199 8.055-7.269.028-.272.042-.548.042-.828V86.098c0-38.545 31.358-69.903 69.902-69.903h102.093c38.545 0 69.903 31.358 69.903 69.903v197.248c.002-.002-84.774-.002-84.784-.002zm196.116 0c-19.925-11.85-43.06-18.168-66.238-18.168h-28.899v-30.185h109.311c28.378 0 51.932 21.049 55.872 48.353h-70.046z"/></svg>